<svg width="24.000000" height="24.000000" viewBox="0 0 24 24" fill="none" xmlns="http://www.w3.org/2000/svg" xmlns:xlink="http://www.w3.org/1999/xlink">
	<desc>
			Created with Pixso.
	</desc>
	<defs>
		<clipPath id="clip231_12463">
			<rect id="Icon" rx="0.000000" width="23.000000" height="23.000000" transform="translate(0.500000 0.500000)" fill="white" fill-opacity="0"/>
		</clipPath>
	</defs>
	<g clip-path="url(#clip231_12463)">
		<path id="icon" d="M22 12C22 12.43 21.85 12.85 21.6 13.17C19.98 15.14 16.3 19 12 19C7.69 19 4.01 15.14 2.39 13.17C2.14 12.85 2 12.43 2 12C2 11.56 2.14 11.14 2.39 10.82C4.01 8.85 7.69 5 12 5C16.3 5 19.98 8.85 21.6 10.82C21.85 11.14 22 11.56 22 12ZM15.08 12C15.08 10.28 13.7 8.88 12 8.88C10.29 8.88 8.91 10.28 8.91 12C8.91 13.71 10.29 15.11 12 15.11C13.7 15.11 15.08 13.71 15.08 12Z" stroke="#FFD11A" stroke-opacity="1.000000" stroke-width="1.500000" stroke-linejoin="round"/>
	</g>
</svg>
