<svg width="49.993042" height="50.000015" viewBox="0 0 49.993 50" fill="none" xmlns="http://www.w3.org/2000/svg" xmlns:xlink="http://www.w3.org/1999/xlink">
	<desc>
			Created with Pixso.
	</desc>
	<defs/>
	<path id="Vector" d="M21.12 34.41L28.92 34.41L28.92 50L21.12 50L21.12 34.41Z" fill="#FFD11A" fill-opacity="1.000000" fill-rule="evenodd"/>
	<path id="Vector" d="M21.12 0L28.92 0L28.92 15.58L21.12 15.58L21.12 0Z" fill="#FFD11A" fill-opacity="1.000000" fill-rule="evenodd"/>
	<path id="Vector" d="M34.4 28.9L34.4 21.09L49.99 21.09L49.99 28.9L34.4 28.9Z" fill="#FFD11A" fill-opacity="1.000000" fill-rule="evenodd"/>
	<path id="Vector" d="M0 28.9L0 21.1L15.58 21.1L15.58 28.9L0 28.9Z" fill="#FFD11A" fill-opacity="1.000000" fill-rule="evenodd"/>
	<path id="Vector" d="M28.9 34.39L34.42 28.87L45.44 39.89L39.92 45.41L28.9 34.39Z" fill="#404040" fill-opacity="1.000000" fill-rule="evenodd"/>
	<path id="Vector" d="M4.57 10.06L10.09 4.54L21.1 15.56L15.59 21.08L4.57 10.06Z" fill="#404040" fill-opacity="1.000000" fill-rule="evenodd"/>
	<path id="Vector" d="M34.4 21.1L28.88 15.58L39.9 4.56L45.42 10.08L34.4 21.1Z" fill="#404040" fill-opacity="1.000000" fill-rule="evenodd"/>
	<path id="Vector" d="M10.07 45.43L4.55 39.91L15.57 28.9L21.09 34.42L10.07 45.43Z" fill="#404040" fill-opacity="1.000000" fill-rule="evenodd"/>
</svg>
