<svg width="80.000000" height="80.000000" viewBox="0 0 80 80" fill="none" xmlns="http://www.w3.org/2000/svg" xmlns:xlink="http://www.w3.org/1999/xlink">
	<desc>
			Created with Pixso.
	</desc>
	<defs>
		<clipPath id="clip226_11875">
			<rect id="Icon" rx="0.000000" width="79.000000" height="79.000000" transform="translate(0.500000 0.500000)" fill="white" fill-opacity="0"/>
		</clipPath>
	</defs>
	<g clip-path="url(#clip226_11875)">
		<path id="Subtract" d="M54 54C64.67 51.43 72 46.12 72 40C72 33.87 64.67 28.56 54 26C55.09 30.21 55.71 34.96 55.71 40C55.71 45.03 55.09 49.78 54 54Z" fill="#404040" fill-opacity="1.000000" fill-rule="evenodd"/>
		<path id="Subtract" d="M26 54C15.32 51.43 8 46.12 8 40C8 33.87 15.32 28.56 26 26C24.9 30.21 24.28 34.96 24.28 40C24.28 45.03 24.9 49.78 26 54Z" fill="#404040" fill-opacity="1.000000" fill-rule="evenodd"/>
		<path id="Subtract" d="M26 54C28.56 64.67 33.87 72 40 72C46.12 72 51.43 64.67 54 54C49.78 55.09 45.03 55.71 40 55.71C34.96 55.71 30.21 55.09 26 54Z" fill="#FFD11A" fill-opacity="1.000000" fill-rule="evenodd"/>
		<path id="Subtract" d="M26 26C28.56 15.32 33.87 8 40 8C46.12 8 51.43 15.32 54 26C49.78 24.9 45.03 24.28 40 24.28C34.96 24.28 30.21 24.9 26 26Z" fill="#FFD11A" fill-opacity="1.000000" fill-rule="evenodd"/>
	</g>
</svg>
